<?xml version="1.0" encoding="UTF-8" standalone="no"?>
<svg
   xmlns:dc="http://purl.org/dc/elements/1.1/"
   xmlns:cc="http://creativecommons.org/ns#"
   xmlns:rdf="http://www.w3.org/1999/02/22-rdf-syntax-ns#"
   xmlns:svg="http://www.w3.org/2000/svg"
   xmlns="http://www.w3.org/2000/svg"
   version="1.1"
   id="svg2"
   viewBox="0 0 1698.4437 315.41471"
   height="89.017044mm"
   width="479.33856mm">
  <defs
     id="defs4">
    <clipPath
       id="clipPath5527"
       clipPathUnits="userSpaceOnUse">
      <path
         id="path5529"
         d="m 0,102.05 453.54,0 L 453.54,0 0,0 0,102.05 Z" />
    </clipPath>
    <clipPath
       id="clipPath5535"
       clipPathUnits="userSpaceOnUse">
      <path
         id="path5537"
         d="m 162.4,71.84 8.16,0 0,-44.23 -8.16,0 0,44.23 z" />
    </clipPath>
    <clipPath
       id="clipPath5555"
       clipPathUnits="userSpaceOnUse">
      <path
         id="path5557"
         d="m 118.17,73.02 161.68,0 0,-45.41 -161.68,0 0,45.41 z" />
    </clipPath>
    <clipPath
       id="clipPath5583"
       clipPathUnits="userSpaceOnUse">
      <path
         id="path5585"
         d="m 283.72,73.35 154.62,0 0,-46 -154.62,0 0,46 z" />
    </clipPath>
  </defs>
  <metadata
     id="metadata7">
    <rdf:RDF>
      <cc:Work
         rdf:about="">
        <dc:format>image/svg+xml</dc:format>
        <dc:type
           rdf:resource="http://purl.org/dc/dcmitype/StillImage" />
        <dc:title></dc:title>
      </cc:Work>
    </rdf:RDF>
  </metadata>
  <g
     transform="translate(623.73714,37.029686)"
     id="layer1">
    <g
       id="g5523"
       transform="matrix(4.0534842,0,0,-4.0534842,-707.97382,328.56318)">
      <g
         clip-path="url(#clipPath5527)"
         id="g5525">
        <g
           id="g5531">
          <g
             id="g5533" />
          <g
             id="g5539">
            <g
               id="g5541"
               clip-path="url(#clipPath5535)">
              <g
                 id="g5543"
                 transform="translate(169.7,57.59)">
                <path
                   id="path5545"
                   style="fill:#e30613;fill-opacity:1;fill-rule:nonzero;stroke:none"
                   d="m 0,0 0,-27.04 c 0,-1.96 -0.79,-2.94 -2.36,-2.94 -1.43,0 -2.32,0.08 -2.68,0.26 -0.81,0.37 -1.22,1.27 -1.22,2.68 l 0,27.04 c 0,1.94 0.78,2.91 2.35,2.91 1.41,0 2.31,-0.07 2.69,-0.22 C -0.41,2.31 0,1.42 0,0" />
              </g>
              <g
                 id="g5547"
                 transform="translate(169.28,70.83)">
                <path
                   id="path5549"
                   style="fill:#e30613;fill-opacity:1;fill-rule:nonzero;stroke:none"
                   d="m 0,0 c 0.86,-0.74 1.28,-1.75 1.28,-3.02 0,-1.26 -0.42,-2.27 -1.28,-3.02 -0.75,-0.67 -1.69,-1 -2.8,-1 -1.11,0 -2.05,0.33 -2.8,1 -0.86,0.75 -1.28,1.76 -1.28,3.02 0,1.27 0.41,2.28 1.25,3.02 0.77,0.67 1.72,1.01 2.83,1.01 1.09,0 2.03,-0.34 2.8,-1.01" />
              </g>
            </g>
          </g>
        </g>
        <g
           id="g5551">
          <g
             id="g5553" />
          <g
             id="g5559">
            <g
               id="g5561"
               clip-path="url(#clipPath5555)">
              <g
                 id="g5563"
                 transform="translate(273.71,48.47)">
                <path
                   id="path5565"
                   style="fill:#e30613;fill-opacity:1;fill-rule:nonzero;stroke:none"
                   d="m 0,0 0,4.39 c 0,2.69 -4.26,4.03 -12.79,4.03 -1.05,0 -2.15,-0.03 -3.29,-0.08 -0.9,-0.04 -1.4,-0.06 -1.5,-0.07 -6.34,0 -9.51,-1.39 -9.51,-4.17 L -27.09,0 0,0 Z m 6.14,5.03 0,-8.61 c 0,-2.16 -0.59,-3.24 -1.76,-3.24 l -31.26,0 c -0.18,-4.06 1.91,-6.47 6.27,-7.23 l 24.42,0 c 0.98,0 1.63,-0.37 1.97,-1.11 0.24,-0.53 0.36,-1.44 0.36,-2.76 0,-1.96 -0.78,-2.94 -2.33,-2.94 l -20.8,0 c -0.06,0 -0.14,0.01 -0.2,0.02 -2.36,0.03 -4.05,0.11 -5.04,0.24 -3.48,0.42 -6.03,1.44 -7.66,3.05 -2.33,2.29 -3.49,4.95 -3.49,7.99 l 0,13.16 c 0,4.13 1.81,7.17 5.42,9.14 2.65,1.46 5.87,2.2 9.66,2.2 l 11.74,0 c 3.12,0 5.84,-0.69 8.17,-2.05 C 4.63,11.12 6.14,8.5 6.14,5.03" />
              </g>
              <g
                 id="g5567"
                 transform="translate(235.17,63.37)">
                <path
                   id="path5569"
                   style="fill:#e30613;fill-opacity:1;fill-rule:nonzero;stroke:none"
                   d="m 0,0 c 1.57,0 2.36,-1.24 2.36,-3.73 0,-1.93 -0.79,-2.9 -2.36,-2.9 l -1.17,0 -1.51,0 c -4.83,0 -7.24,-1.5 -7.24,-4.5 l 0,-21.7 c 0,-1.46 -0.43,-2.36 -1.28,-2.71 -0.34,-0.15 -1.26,-0.22 -2.77,-0.22 -1.55,0 -2.33,0.99 -2.33,2.98 l 0.09,21.7 C -16.21,-3.69 -10.8,0 0,0" />
              </g>
              <g
                 id="g5571"
                 transform="translate(208.74,39.13)">
                <path
                   id="path5573"
                   style="fill:#e30613;fill-opacity:1;fill-rule:nonzero;stroke:none"
                   d="m 0,0 0,12.72 c 0,3.09 -2.83,4.63 -8.49,4.63 l -18.87,0 0,-17.76 c 0,-1.6 1.36,-2.8 4.08,-3.62 1.91,-0.6 3.83,-0.9 5.76,-0.9 l 8.97,0 c 2.8,0 4.61,0.13 5.42,0.37 C -1.04,-3.91 0,-2.39 0,0 m 6.26,12.86 0,-13.12 c 0,-7.51 -4.96,-11.26 -14.87,-11.26 l -9.66,0 c -3.48,0 -6.69,0.79 -9.66,2.38 -3.81,2.04 -5.72,4.94 -5.72,8.69 l 0,31.36 c 0,1.46 0.43,2.38 1.28,2.75 0.34,0.13 1.24,0.19 2.69,0.19 1.55,0 2.32,-0.98 2.32,-2.94 l 0,-6.97 18.75,0 c 9.91,0 14.87,-3.69 14.87,-11.08" />
              </g>
              <g
                 id="g5575"
                 transform="translate(159,33.31)">
                <path
                   id="path5577"
                   style="fill:#e30613;fill-opacity:1;fill-rule:nonzero;stroke:none"
                   d="m 0,0 c 0.24,-0.52 0.36,-1.44 0.36,-2.76 0,-1.96 -0.78,-2.94 -2.33,-2.94 l -20.8,0 c -3.64,0 -6.35,0.17 -8.14,0.52 -3.25,0.62 -5.72,1.89 -7.4,3.82 -1.68,1.93 -2.52,4.47 -2.52,7.63 l 0,30.53 c 0,1.94 0.78,2.91 2.32,2.91 1.63,0 2.6,-0.05 2.9,-0.15 0.93,-0.35 1.4,-1.27 1.4,-2.76 l 0,-30.54 c 0,-2.44 1.54,-4 4.62,-4.7 1.25,-0.3 3.5,-0.45 6.76,-0.45 l 20.86,0 C -0.99,1.11 -0.34,0.74 0,0" />
              </g>
            </g>
          </g>
        </g>
        <g
           id="g5579">
          <g
             id="g5581" />
          <g
             id="g5587">
            <g
               id="g5589"
               clip-path="url(#clipPath5583)">
              <g
                 id="g5591"
                 transform="translate(438.34,42.94)">
                <path
                   id="path5593"
                   style="fill:#ffffff;fill-opacity:1;fill-rule:nonzero;stroke:none"
                   d="m 0,0 0,-4.07 c 0,-2.41 -0.31,-4.31 -0.93,-5.71 -1.69,-3.7 -6.67,-5.55 -14.96,-5.55 l -22.91,0 c -1.54,0 -2.3,0.98 -2.3,2.94 0,1.32 0.11,2.23 0.33,2.76 0.34,0.74 0.99,1.11 1.97,1.11 l 22.91,0 c 6.18,0 9.27,1.43 9.27,4.29 l 0,3.92 c 0,2.83 -2.99,4.35 -8.97,4.55 -10.19,0.37 -15.75,0.66 -16.66,0.85 -5.96,1.27 -8.94,4.6 -8.94,10 l 0,3.43 c 0,5.42 2.35,8.91 7.03,10.48 1.99,0.66 5.63,1.01 10.89,1.07 0.03,0 0.06,0.01 0.1,0.01 l 20.8,0 c 1.55,0 2.32,-0.98 2.32,-2.95 0,-1.31 -0.12,-2.23 -0.35,-2.75 -0.34,-0.75 -1,-1.12 -1.97,-1.12 l -24.72,0 c -4.99,-0.35 -7.48,-1.91 -7.48,-4.68 l 0,-3.16 c 0,-1.98 1.36,-3.26 4.08,-3.86 1.09,-0.22 3.04,-0.33 5.84,-0.33 l 8.85,0 c 3.94,0 7.27,-0.69 10.02,-2.05 C -1.93,7.24 0,4.18 0,0" />
              </g>
              <g
                 id="g5595"
                 transform="translate(393.6,68.32)">
                <path
                   id="path5597"
                   style="fill:#ffffff;fill-opacity:1;fill-rule:nonzero;stroke:none"
                   d="m 0,0 0,-37.77 c 0,-1.49 -0.46,-2.41 -1.4,-2.76 -0.29,-0.12 -1.26,-0.18 -2.89,-0.18 -1.55,0 -2.32,0.98 -2.32,2.94 l 0,29.39 -19.52,-30.1 c -1.04,-1.59 -2.44,-2.38 -4.21,-2.38 -1.76,0 -3.17,0.79 -4.23,2.38 l -19.87,30.25 0,-29.54 c 0,-1.96 -0.78,-2.94 -2.33,-2.94 -1.63,0 -2.59,0.06 -2.89,0.18 -0.93,0.35 -1.4,1.27 -1.4,2.77 l 0,38.13 c 0,1.34 0.38,2.4 1.13,3.17 0.68,0.7 1.53,1.05 2.57,1.05 1.59,0 2.88,-0.73 3.88,-2.19 l 23.24,-34.37 22.7,34.4 c 0.93,1.44 2.19,2.16 3.76,2.16 1.07,0 1.94,-0.38 2.62,-1.12 C -0.39,2.62 0,1.47 0,0" />
              </g>
              <g
                 id="g5599"
                 transform="translate(328.66,70.11)">
                <path
                   id="path5601"
                   style="fill:#ffffff;fill-opacity:1;fill-rule:nonzero;stroke:none"
                   d="m 0,0 0,-37.59 c 0,-3.45 -1.21,-5.17 -3.64,-5.17 -0.24,0 -0.48,0.02 -0.74,0.07 -0.8,0.1 -1.81,0.8 -3.05,2.11 l -30.89,32.83 0,-31.81 c 0,-1.49 -0.46,-2.41 -1.37,-2.76 -0.32,-0.12 -1.29,-0.18 -2.92,-0.18 -1.55,0 -2.33,0.98 -2.33,2.94 l 0,37.88 c 0,1.32 0.07,2.18 0.21,2.57 0.2,0.63 0.7,1.23 1.49,1.83 0.5,0.35 1.06,0.52 1.7,0.52 1.45,0 2.92,-0.79 4.41,-2.38 l 30.49,-32.45 0,31.59 c 0,1.49 0.47,2.41 1.4,2.76 0.32,0.1 1.28,0.15 2.89,0.15 C -0.78,2.91 0,1.94 0,0" />
              </g>
            </g>
          </g>
        </g>
      </g>
    </g>
    <flowRoot
       style="font-style:normal;font-weight:normal;font-size:40px;line-height:125%;font-family:sans-serif;letter-spacing:0px;word-spacing:0px;fill:#000000;fill-opacity:1;stroke:none;stroke-width:1px;stroke-linecap:butt;stroke-linejoin:miter;stroke-opacity:1"
       id="flowRoot3405"
       xml:space="preserve"><flowRegion
         id="flowRegion3407"><rect
           y="106.64792"
           x="-948.57141"
           height="228.57143"
           width="242.85715"
           id="rect3409" /></flowRegion><flowPara
         id="flowPara3411"></flowPara></flowRoot>    <flowRoot
       style="font-style:normal;font-weight:normal;font-size:40px;line-height:125%;font-family:sans-serif;letter-spacing:0px;word-spacing:0px;fill:#000000;fill-opacity:1;stroke:none;stroke-width:1px;stroke-linecap:butt;stroke-linejoin:miter;stroke-opacity:1"
       id="flowRoot3413"
       xml:space="preserve"><flowRegion
         id="flowRegion3415"><rect
           y="109.50506"
           x="-760"
           height="74.285713"
           width="51.42857"
           id="rect3417" /></flowRegion><flowPara
         id="flowPara3419"></flowPara></flowRoot>    <flowRoot
       style="font-style:normal;font-weight:normal;font-size:40px;line-height:125%;font-family:sans-serif;letter-spacing:0px;word-spacing:0px;fill:#000000;fill-opacity:1;stroke:none;stroke-width:1px;stroke-linecap:butt;stroke-linejoin:miter;stroke-opacity:1"
       id="flowRoot3421"
       xml:space="preserve"><flowRegion
         id="flowRegion3423"><rect
           y="106.64792"
           x="-722.85712"
           height="85.714287"
           width="14.285714"
           id="rect3425" /></flowRegion><flowPara
         id="flowPara3427"></flowPara></flowRoot>    <g
       transform="matrix(0.70710678,-0.70710678,0.70710678,0.70710678,-234.35487,-179.83787)"
       style="fill:#e30613;fill-opacity:1"
       id="g4255">
      <rect
         style="fill:#e30613;fill-opacity:1"
         id="rect3680-40-8-19"
         width="42.810818"
         height="28.192488"
         x="27.272272"
         y="468.72418"
         transform="matrix(0,1,-1,0,0,0)" />
      <rect
         style="fill:#e30613;fill-opacity:1"
         id="rect3680-40-8-64"
         width="42.810818"
         height="28.192488"
         x="27.272272"
         y="397.72089"
         transform="matrix(0,1,-1,0,0,0)" />
      <rect
         style="fill:#e30613;fill-opacity:1"
         id="rect3680-17"
         width="42.810818"
         height="28.192488"
         x="-468.72418"
         y="70.083092" />
      <rect
         style="fill:#e30613;fill-opacity:1"
         id="rect3680-11"
         width="42.810818"
         height="28.192488"
         x="-468.72418"
         y="141.0864" />
      <rect
         style="fill:#e30613;fill-opacity:1"
         id="rect3680-40-8-81"
         width="42.810818"
         height="28.192488"
         x="98.275574"
         y="468.72418"
         transform="matrix(0,1,-1,0,0,0)" />
      <rect
         style="fill:#e30613;fill-opacity:1"
         id="rect3680-40-8-02"
         width="42.810818"
         height="28.192488"
         x="98.275574"
         y="397.72089"
         transform="matrix(0,1,-1,0,0,0)" />
      <rect
         style="fill:#e30613;fill-opacity:1"
         id="rect3680-1"
         width="42.810818"
         height="28.192488"
         x="-468.72418"
         y="-0.92020941" />
      <rect
         style="fill:#e30613;fill-opacity:1"
         id="rect3680"
         width="42.810818"
         height="28.192488"
         x="-468.72418"
         y="-71.923515" />
      <rect
         style="fill:#e30613;fill-opacity:1"
         id="rect3680-40-8-5"
         width="42.810818"
         height="28.192488"
         x="-43.731026"
         y="468.72418"
         transform="matrix(0,1,-1,0,0,0)" />
      <rect
         style="fill:#e30613;fill-opacity:1"
         id="rect3680-40-8-1"
         width="42.810818"
         height="28.192488"
         x="-43.731026"
         y="397.72089"
         transform="matrix(0,1,-1,0,0,0)" />
      <rect
         style="fill:#e30613;fill-opacity:1"
         id="rect3680-0"
         width="42.810818"
         height="28.192488"
         x="-397.72089"
         y="-71.923515" />
      <rect
         style="fill:#e30613;fill-opacity:1"
         id="rect3680-40-8-6"
         width="42.810818"
         height="28.192488"
         x="-43.570915"
         y="326.71759"
         transform="matrix(0,1,-1,0,0,0)" />
      <rect
         style="fill:#e30613;fill-opacity:1"
         id="rect3680-2"
         width="42.810818"
         height="28.192488"
         x="-326.71759"
         y="-71.923515" />
      <rect
         style="fill:#e30613;fill-opacity:1"
         id="rect3680-40-8-62"
         width="42.810818"
         height="28.192488"
         x="-43.73103"
         y="255.71431"
         transform="matrix(0,1,-1,0,0,0)" />
    </g>
    <g
       transform="matrix(0.70710678,-0.70710678,0.70710678,0.70710678,-234.35487,-179.83787)"
       style="fill:#ffffff;fill-opacity:1"
       id="g4271">
      <rect
         style="fill:#ffffff;fill-opacity:1"
         id="rect3680-4"
         width="42.810818"
         height="28.192488"
         x="-397.72089"
         y="70.083092" />
      <rect
         style="fill:#ffffff;fill-opacity:1"
         id="rect3680-70"
         width="42.810818"
         height="28.192488"
         x="-397.72089"
         y="141.0864" />
      <rect
         style="fill:#ffffff;fill-opacity:1"
         id="rect3680-7"
         width="42.810818"
         height="28.192488"
         x="-397.72089"
         y="-0.92021334" />
      <rect
         style="fill:#ffffff;fill-opacity:1"
         id="rect3680-5"
         width="42.810818"
         height="28.192488"
         x="-326.71759"
         y="-0.92021334" />
      <rect
         style="fill:#ffffff;fill-opacity:1"
         id="rect3680-40-8-8"
         width="42.810818"
         height="28.192488"
         x="27.272272"
         y="326.71759"
         transform="matrix(0,1,-1,0,0,0)" />
      <rect
         style="fill:#ffffff;fill-opacity:1"
         id="rect3680-40-8-0"
         width="42.810818"
         height="28.192488"
         x="27.272272"
         y="255.71431"
         transform="matrix(0,1,-1,0,0,0)" />
      <rect
         style="fill:#ffffff;fill-opacity:1"
         id="rect3680-171"
         width="42.810818"
         height="28.192488"
         x="-326.71759"
         y="70.083092" />
      <rect
         style="fill:#ffffff;fill-opacity:1"
         id="rect3680-40-8-2"
         width="42.810818"
         height="28.192488"
         x="98.275574"
         y="326.71759"
         transform="matrix(0,1,-1,0,0,0)" />
      <rect
         style="fill:#ffffff;fill-opacity:1"
         id="rect3680-40"
         width="42.810818"
         height="28.192488"
         x="-326.71759"
         y="141.0864" />
      <rect
         style="fill:#ffffff;fill-opacity:1"
         id="rect3680-40-8-9"
         width="42.810818"
         height="28.192488"
         x="98.275574"
         y="255.71431"
         transform="matrix(0,1,-1,0,0,0)" />
    </g>
  </g>
</svg>
