<?xml version="1.0" standalone="no"?>
<!DOCTYPE svg PUBLIC "-//W3C//DTD SVG 20010904//EN"
 "http://www.w3.org/TR/2001/REC-SVG-20010904/DTD/svg10.dtd">
<svg version="1.0" xmlns="http://www.w3.org/2000/svg"
 width="700.000000pt" height="700.000000pt" viewBox="0 0 700.000000 700.000000"
 preserveAspectRatio="xMidYMid meet">
<metadata>
Created by potrace 1.11, written by Peter Selinger 2001-2013
</metadata>
<g transform="translate(0.000000,700.000000) scale(0.100000,-0.100000)"
fill="#000000" stroke="none">
<path d="M2720 6505 l-335 -335 221 -221 222 -222 331 332 c182 182 331 336
331 341 0 9 -424 440 -433 440 -1 0 -153 -151 -337 -335z"/>
<path d="M3721 6621 l-221 -221 336 -336 337 -336 -337 -337 -336 -336 -330
330 c-181 182 -333 331 -338 333 -4 1 -104 -95 -222 -213 -118 -118 -218 -215
-221 -215 -4 0 -105 99 -225 220 l-219 219 -337 -336 -337 -337 217 -218 c119
-120 220 -218 224 -218 5 0 156 149 338 330 182 182 333 330 336 330 10 0 664
-656 664 -666 0 -5 -149 -158 -332 -341 l-332 -332 217 -217 c119 -120 217
-221 217 -225 0 -3 -98 -104 -217 -223 l-217 -217 -220 220 -221 221 218 218
c119 119 217 220 217 223 0 6 -621 631 -654 658 -12 11 -51 -24 -231 -204
-119 -119 -215 -221 -213 -226 2 -5 151 -158 333 -339 l330 -330 -336 -336
-337 -337 -336 337 -336 336 336 336 337 336 -222 222 -221 221 -336 -336
-336 -337 221 -221 221 -221 -221 -221 -221 -222 336 -336 336 -336 218 218
c119 119 221 217 225 217 4 0 104 -97 222 -215 118 -118 216 -215 219 -215 2
0 152 149 333 330 182 182 334 330 339 330 5 0 149 -140 319 -311 171 -170
320 -320 332 -331 l22 -21 216 215 c118 118 215 219 215 225 0 6 -149 159
-332 342 l-331 331 337 336 336 337 -220 220 -220 219 221 221 220 220 217
-216 c120 -119 220 -217 224 -217 6 0 630 621 658 655 9 11 -27 53 -204 229
-119 119 -216 219 -216 223 0 4 98 106 217 225 l218 218 -336 336 -337 337
-221 -222z"/>
<path d="M4838 5511 c-120 -120 -218 -221 -218 -225 0 -3 149 -155 330 -336
182 -181 330 -333 330 -336 0 -4 -143 -150 -317 -324 -175 -174 -324 -325
-332 -334 -13 -16 6 -38 205 -237 l219 -219 -218 -218 c-119 -119 -217 -220
-217 -223 0 -6 621 -631 654 -658 13 -11 50 23 230 203 119 119 219 216 223
216 4 0 106 -98 225 -217 l218 -218 336 336 336 337 -221 221 -221 221 -336
-336 -336 -336 -337 336 -336 336 336 336 337 337 336 -337 336 -336 221 221
221 222 -336 336 -336 336 -218 -218 c-119 -119 -220 -217 -224 -217 -8 0
-438 426 -438 434 0 2 99 102 220 223 l219 219 -337 337 -337 336 -217 -218z"/>
<path d="M3723 4396 c-117 -117 -213 -217 -213 -223 0 -5 149 -159 331 -341
l332 -332 220 221 221 220 -170 170 c-329 331 -495 494 -502 496 -4 1 -103
-94 -219 -211z"/>
<path d="M3832 3163 l-332 -335 220 -221 221 -221 337 337 336 336 -221 220
c-121 122 -222 220 -224 220 -2 -1 -154 -152 -337 -336z"/>
<path d="M1488 2162 l-217 -218 337 -337 337 -336 215 215 c118 119 218 218
222 220 4 3 104 -92 223 -211 118 -118 218 -215 222 -215 5 0 158 150 340 332
l333 333 330 -330 c181 -181 334 -331 339 -333 5 -2 107 94 226 213 184 184
215 218 204 231 -27 33 -652 654 -658 654 -3 0 -104 -98 -223 -217 l-218 -218
-220 220 -219 219 -27 -24 c-15 -14 -165 -163 -334 -332 -169 -170 -310 -308
-314 -308 -3 0 -154 149 -336 330 -182 182 -333 330 -338 330 -4 0 -105 -98
-224 -218z"/>
<path d="M4948 2049 c-181 -181 -328 -332 -328 -337 0 -4 98 -105 218 -224
l218 -217 337 337 336 337 -218 218 c-120 119 -222 217 -227 216 -5 0 -156
-149 -336 -330z"/>
<path d="M2605 1050 l-220 -220 336 -336 336 -336 217 216 c119 118 216 220
216 226 0 8 -654 670 -662 670 -2 0 -102 -99 -223 -220z"/>
<path d="M3833 934 l-333 -334 221 -221 222 -221 336 336 336 336 -220 220
c-121 121 -222 220 -225 219 -3 0 -155 -151 -337 -335z"/>
</g>
</svg>
